<svg xmlns="http://www.w3.org/2000/svg" version="1.1" xmlns:xlink="http://www.w3.org/1999/xlink" xmlns:svgjs="http://svgjs.dev/svgjs" width="2000" height="575" viewBox="0 0 2000 575"><g transform="matrix(1,0,0,1,-1.2121212121212466,0.09248008696869192)"><svg viewBox="0 0 396 114" data-background-color="#14293a" preserveAspectRatio="xMidYMid meet" height="575" width="2000" xmlns="http://www.w3.org/2000/svg" xmlns:xlink="http://www.w3.org/1999/xlink"><g id="tight-bounds" transform="matrix(1,0,0,1,0.2400000000000091,-0.01833518245987875)"><svg viewBox="0 0 395.52 114.03667036491977" height="114.03667036491977" width="395.52"><g><svg viewBox="0 0 395.52 114.03667036491977" height="114.03667036491977" width="395.52"><g transform="matrix(1,0,0,1,0,70.47923720983957)"><svg viewBox="0 0 395.52 43.557433155080204" height="43.557433155080204" width="395.52"><g id="textblocktransform"><svg viewBox="0 0 395.52 43.557433155080204" height="43.557433155080204" width="395.52" id="textblock"><g><svg viewBox="0 0 395.52 43.557433155080204" height="43.557433155080204" width="395.52"><g transform="matrix(1,0,0,1,0,0)"><svg width="395.52" viewBox="1.05 -32.35 299.17 32.95" height="43.557433155080204" data-palette-color="#e9e4de"><path d="M33.6-30.65L36.7-30.65 30 0 25.45 0 18.9-25.1 12.55 0 7.7 0 1.05-30.65 6.15-30.65 11.25-6.15 17.5-30.65 22.15-30.65 28.45-6.05 33.6-30.65ZM60.2-11.7L44.7-11.7 44.7-11.6Q44.7-6.3 45.97-4.1 47.25-1.9 50.35-1.9L50.35-1.9Q55.45-1.9 55.7-7.15L55.7-7.15 59.85-6.95Q59.5-3.45 57.3-1.43 55.1 0.6 50.2 0.6L50.2 0.6Q44.55 0.6 42.1-2.53 39.65-5.65 39.65-12L39.65-12Q39.65-17.7 41.97-21.15 44.3-24.6 50.15-24.6L50.15-24.6Q55.8-24.6 58-21.18 60.2-17.75 60.2-12.2L60.2-12.2 60.2-11.7ZM50.05-22.1Q47.4-22.1 46.2-20.15 45-18.2 44.75-14.2L44.75-14.2 55.3-14.2Q55.15-18.1 53.97-20.1 52.8-22.1 50.05-22.1L50.05-22.1ZM71.4 0.6Q68.35 0.6 66.57-1.07 64.8-2.75 64.8-5.65L64.8-5.65Q64.8-8.75 67.02-10.53 69.25-12.3 73.8-13.1L73.8-13.1 79.35-14 79.35-16.45Q79.35-22.1 75.05-22.1L75.05-22.1Q72.5-22.1 71.35-20.65 70.2-19.2 70.05-16.2L70.05-16.2 65.85-16.65Q66.15-20.6 68.25-22.6 70.35-24.6 75.15-24.6L75.15-24.6Q79.8-24.6 82.1-22.53 84.4-20.45 84.4-16.25L84.4-16.25 84.4 0 81.2 0 79.65-3.5Q78.1-1.5 75.95-0.45 73.8 0.6 71.4 0.6L71.4 0.6ZM73.2-2.05Q74.9-2.05 76.57-3.05 78.25-4.05 79.35-5.4L79.35-5.4 79.35-11.95 74.45-11Q71.95-10.45 70.67-9.25 69.4-8.05 69.4-6L69.4-6Q69.4-4.2 70.42-3.13 71.45-2.05 73.2-2.05L73.2-2.05ZM102.69-3.15L103.34-0.85Q100.69 0.6 98.24 0.6L98.24 0.6Q95.74 0.6 94.52-0.33 93.29-1.25 92.99-2.55 92.69-3.85 92.69-5.75L92.69-5.75 92.69-21.45 88.79-21.45 88.79-24 92.69-24 92.69-27.9 97.79-29.8 97.79-24 102.89-24 102.89-21.45 97.79-21.45 97.79-5.15Q97.79-3.5 98.22-2.88 98.64-2.25 99.64-2.25L99.64-2.25Q101.04-2.25 102.69-3.15L102.69-3.15ZM119.59-24.6Q123.54-24.6 125.42-22.6 127.29-20.6 127.29-16.95L127.29-16.95 127.29 0 122.24 0 122.24-16.55Q122.24-19.2 121.29-20.5 120.34-21.8 118.29-21.8L118.29-21.8Q115.19-21.8 112.29-19.5L112.29-19.5 112.29 0 107.24 0 107.24-31.7 112.29-32.35 112.29-22.1Q113.89-23.25 115.79-23.93 117.69-24.6 119.59-24.6L119.59-24.6ZM153.74-11.7L138.24-11.7 138.24-11.6Q138.24-6.3 139.51-4.1 140.79-1.9 143.89-1.9L143.89-1.9Q148.99-1.9 149.24-7.15L149.24-7.15 153.39-6.95Q153.04-3.45 150.84-1.43 148.64 0.6 143.74 0.6L143.74 0.6Q138.09 0.6 135.64-2.53 133.19-5.65 133.19-12L133.19-12Q133.19-17.7 135.51-21.15 137.84-24.6 143.69-24.6L143.69-24.6Q149.34-24.6 151.54-21.18 153.74-17.75 153.74-12.2L153.74-12.2 153.74-11.7ZM143.59-22.1Q140.94-22.1 139.74-20.15 138.54-18.2 138.29-14.2L138.29-14.2 148.84-14.2Q148.69-18.1 147.51-20.1 146.34-22.1 143.59-22.1L143.59-22.1ZM164.69-19.45Q165.84-21.6 167.91-22.9 169.99-24.2 172.89-24.2L172.89-24.2 172.89-20.5Q165.19-20.5 165.19-14.5L165.19-14.5 165.14-14.5 165.14 0 160.09 0 160.09-24 162.29-24 164.69-19.45ZM193.63-22.3Q193.03-29.15 187.78-29.15L187.78-29.15Q184.93-29.15 183.38-27.65 181.83-26.15 181.23-23.2 180.63-20.25 180.63-15.3L180.63-15.3Q180.63-10.4 181.23-7.48 181.83-4.55 183.38-3.05 184.93-1.55 187.78-1.55L187.78-1.55Q190.93-1.55 192.31-3.68 193.68-5.8 193.78-9.65L193.78-9.65 197.93-9.5Q197.53-4.5 195.33-1.95 193.13 0.6 187.78 0.6L187.78 0.6Q183.08 0.6 180.38-1.23 177.68-3.05 176.61-6.5 175.53-9.95 175.53-15.3L175.53-15.3Q175.53-20.65 176.61-24.13 177.68-27.6 180.36-29.43 183.03-31.25 187.78-31.25L187.78-31.25Q192.83-31.25 195.03-29.18 197.23-27.1 197.73-23.05L197.73-23.05 193.63-22.3ZM215.88-24.6Q219.83-24.6 221.71-22.6 223.58-20.6 223.58-16.95L223.58-16.95 223.58 0 218.53 0 218.53-16.55Q218.53-19.2 217.58-20.5 216.63-21.8 214.58-21.8L214.58-21.8Q211.48-21.8 208.58-19.5L208.58-19.5 208.58 0 203.53 0 203.53-31.7 208.58-32.35 208.58-22.1Q210.18-23.25 212.08-23.93 213.98-24.6 215.88-24.6L215.88-24.6ZM250.03-11.7L234.53-11.7 234.53-11.6Q234.53-6.3 235.8-4.1 237.08-1.9 240.18-1.9L240.18-1.9Q245.28-1.9 245.53-7.15L245.53-7.15 249.68-6.95Q249.33-3.45 247.13-1.43 244.93 0.6 240.03 0.6L240.03 0.6Q234.38 0.6 231.93-2.53 229.48-5.65 229.48-12L229.48-12Q229.48-17.7 231.8-21.15 234.13-24.6 239.98-24.6L239.98-24.6Q245.63-24.6 247.83-21.18 250.03-17.75 250.03-12.2L250.03-12.2 250.03-11.7ZM239.88-22.1Q237.23-22.1 236.03-20.15 234.83-18.2 234.58-14.2L234.58-14.2 245.13-14.2Q244.98-18.1 243.8-20.1 242.63-22.1 239.88-22.1L239.88-22.1ZM259.63-12Q259.63-7 260.75-4.45 261.88-1.9 264.98-1.9L264.98-1.9Q267.52-1.9 268.65-3.45 269.77-5 269.88-8.15L269.88-8.15 274.18-8Q273.88-3.8 271.77-1.6 269.68 0.6 264.88 0.6L264.88 0.6Q258.98 0.6 256.77-2.83 254.58-6.25 254.58-12L254.58-12Q254.58-17.8 256.77-21.2 258.98-24.6 264.88-24.6L264.88-24.6Q269.68-24.6 271.75-22.53 273.82-20.45 274.13-16.45L274.13-16.45 269.88-15.9Q269.77-19.05 268.65-20.58 267.52-22.1 264.98-22.1L264.98-22.1Q261.88-22.1 260.75-19.58 259.63-17.05 259.63-12L259.63-12ZM300.22 0L294.77 0 287.37-11.15 285.62-9.25 285.62 0 280.57 0 280.57-31.7 285.62-32.35 285.62-12.3 296.57-24 299.47-24 290.47-14.45 300.22 0Z" opacity="1" transform="matrix(1,0,0,1,0,0)" fill="#000000" class="wordmark-text-0" data-fill-palette-color="primary" id="text-0"></path></svg></g></svg></g></svg></g></svg></g><g transform="matrix(1,0,0,1,157.81841615444927,0)"><svg viewBox="0 0 79.88316769110142 60.19637262032086" height="60.19637262032086" width="79.88316769110142"><g><svg xmlns="http://www.w3.org/2000/svg" xmlns:xlink="http://www.w3.org/1999/xlink" version="1.1" x="8" y="0" viewBox="0.984 2.37 48.032 45.26000000000001" enable-background="new 0 0 50 50" xml:space="preserve" height="60.19637262032086" width="63.88316769110142" class="icon-icon-0" data-fill-palette-color="accent" id="icon-0"><g fill="#99abc1" data-fill-palette-color="accent"><path fill="#000000" d="M3.459 31.03c3.357 0 22.031 0 28.753 0 6.52-6.523-0.793-10.971-3.457-10.971l-1.584 3.063c0 0 0.299-10.178-9.784-10.178-5.634 0-8.89 6.422-8.89 6.422l4.051 3.361c-4.251-4.25-11.564-3.063-11.564 3.754C0.985 26.481 1.187 31.03 3.459 31.03z" data-fill-palette-color="accent"></path><path fill="#000000" d="M45.949 36.366c-0.494 0.887-1.682 1.184-2.57 0.689l-5.139-2.965c-0.891-0.592-1.186-1.68-0.695-2.568l0 0c0.498-0.988 1.684-1.283 2.574-0.693l5.137 2.965C46.242 34.29 46.541 35.476 45.949 36.366L45.949 36.366z" data-fill-palette-color="accent"></path><path fill="#000000" d="M45.949 36.366c-0.494 0.887-1.682 1.184-2.57 0.689l-5.139-2.965c-0.891-0.592-1.186-1.68-0.695-2.568l0 0c0.498-0.988 1.684-1.283 2.574-0.693l5.137 2.965C46.242 34.29 46.541 35.476 45.949 36.366L45.949 36.366z" data-fill-palette-color="accent"></path><path fill="#000000" d="M37.746 44.663c-0.986 0.496-2.074 0.199-2.57-0.689l-3.064-5.238c-0.492-0.889-0.197-1.977 0.695-2.568l0 0c0.887-0.492 2.072-0.199 2.57 0.691l3.061 5.236C38.932 42.983 38.635 44.073 37.746 44.663L37.746 44.663z" data-fill-palette-color="accent"></path><path fill="#000000" d="M37.746 44.663c-0.986 0.496-2.074 0.199-2.57-0.689l-3.064-5.238c-0.492-0.889-0.197-1.977 0.695-2.568l0 0c0.887-0.492 2.072-0.199 2.57 0.691l3.061 5.236C38.932 42.983 38.635 44.073 37.746 44.663L37.746 44.663z" data-fill-palette-color="accent"></path><path fill="#000000" d="M26.381 47.63c-1.084 0-1.875-0.793-1.875-1.877v-5.93c0-1.088 0.791-1.877 1.875-1.877l0 0c1.09 0 1.879 0.789 1.879 1.877v5.93C28.26 46.837 27.471 47.63 26.381 47.63L26.381 47.63z" data-fill-palette-color="accent"></path><path fill="#000000" d="M26.381 47.63c-1.084 0-1.875-0.793-1.875-1.877v-5.93c0-1.088 0.791-1.877 1.875-1.877l0 0c1.09 0 1.879 0.789 1.879 1.877v5.93C28.26 46.837 27.471 47.63 26.381 47.63L26.381 47.63z" data-fill-palette-color="accent"></path><path fill="#000000" d="M26.381 2.37c1.09 0 1.879 0.889 1.879 1.879v6.027c0 0.986-0.789 1.877-1.879 1.877l0 0c-1.084 0-1.875-0.891-1.875-1.877V4.249C24.505 3.259 25.296 2.37 26.381 2.37L26.381 2.37z" data-fill-palette-color="accent"></path><path fill="#000000" d="M26.381 2.37c1.09 0 1.879 0.889 1.879 1.879v6.027c0 0.986-0.789 1.877-1.879 1.877l0 0c-1.084 0-1.875-0.891-1.875-1.877V4.249C24.505 3.259 25.296 2.37 26.381 2.37L26.381 2.37z" data-fill-palette-color="accent"></path><path fill="#000000" d="M37.746 5.435c0.889 0.494 1.186 1.682 0.691 2.572l-3.061 5.137c-0.498 0.889-1.684 1.186-2.57 0.691l0 0c-0.893-0.494-1.188-1.682-0.695-2.572l3.064-5.137C35.672 5.237 36.76 4.94 37.746 5.435L37.746 5.435z" data-fill-palette-color="accent"></path><path fill="#000000" d="M37.746 5.435c0.889 0.494 1.186 1.682 0.691 2.572l-3.061 5.137c-0.498 0.889-1.684 1.186-2.57 0.691l0 0c-0.893-0.494-1.188-1.682-0.695-2.572l3.064-5.137C35.672 5.237 36.76 4.94 37.746 5.435L37.746 5.435z" data-fill-palette-color="accent"></path><path fill="#000000" d="M45.949 13.735c0.592 0.891 0.293 1.977-0.693 2.568l-5.137 2.965c-0.891 0.494-2.076 0.197-2.574-0.691l0 0c-0.49-0.889-0.195-2.076 0.695-2.568l5.139-2.967C44.268 12.448 45.455 12.845 45.949 13.735L45.949 13.735z" data-fill-palette-color="accent"></path><path fill="#000000" d="M45.949 13.735c0.592 0.891 0.293 1.977-0.693 2.568l-5.137 2.965c-0.891 0.494-2.076 0.197-2.574-0.691l0 0c-0.49-0.889-0.195-2.076 0.695-2.568l5.139-2.967C44.268 12.448 45.455 12.845 45.949 13.735L45.949 13.735z" data-fill-palette-color="accent"></path><path fill="#000000" d="M49.016 24.999c0 1.088-0.795 1.879-1.879 1.879h-5.932c-1.086 0-1.875-0.791-1.875-1.879l0 0c0-0.986 0.789-1.877 1.875-1.877h5.932C48.221 23.122 49.016 24.013 49.016 24.999L49.016 24.999z" data-fill-palette-color="accent"></path><path fill="#000000" d="M49.016 24.999c0 1.088-0.795 1.879-1.879 1.879h-5.932c-1.086 0-1.875-0.791-1.875-1.879l0 0c0-0.986 0.789-1.877 1.875-1.877h5.932C48.221 23.122 49.016 24.013 49.016 24.999L49.016 24.999z" data-fill-palette-color="accent"></path><path fill="#000000" d="M45.949 36.366c-0.494 0.887-1.682 1.184-2.57 0.689l-5.139-2.965c-0.891-0.592-1.186-1.68-0.695-2.568l0 0c0.498-0.988 1.684-1.283 2.574-0.693l5.137 2.965C46.242 34.29 46.541 35.476 45.949 36.366L45.949 36.366z" data-fill-palette-color="accent"></path><path fill="#000000" d="M37.746 44.663c-0.986 0.496-2.074 0.199-2.57-0.689l-3.064-5.238c-0.492-0.889-0.197-1.977 0.695-2.568l0 0c0.887-0.492 2.072-0.199 2.57 0.691l3.061 5.236C38.932 42.983 38.635 44.073 37.746 44.663L37.746 44.663z" data-fill-palette-color="accent"></path><path fill="#000000" d="M26.381 47.63c-1.084 0-1.875-0.793-1.875-1.877v-5.93c0-1.088 0.791-1.877 1.875-1.877l0 0c1.09 0 1.879 0.789 1.879 1.877v5.93C28.26 46.837 27.471 47.63 26.381 47.63L26.381 47.63z" data-fill-palette-color="accent"></path><path fill="#000000" d="M26.381 2.37c1.09 0 1.879 0.889 1.879 1.879v6.027c0 0.986-0.789 1.877-1.879 1.877l0 0c-1.084 0-1.875-0.891-1.875-1.877V4.249C24.505 3.259 25.296 2.37 26.381 2.37L26.381 2.37z" data-fill-palette-color="accent"></path><path fill="#000000" d="M37.746 5.435c0.889 0.494 1.186 1.682 0.691 2.572l-3.061 5.137c-0.498 0.889-1.684 1.186-2.57 0.691l0 0c-0.893-0.494-1.188-1.682-0.695-2.572l3.064-5.137C35.672 5.237 36.76 4.94 37.746 5.435L37.746 5.435z" data-fill-palette-color="accent"></path><path fill="#000000" d="M45.949 13.735c0.592 0.891 0.293 1.977-0.693 2.568l-5.137 2.965c-0.891 0.494-2.076 0.197-2.574-0.691l0 0c-0.49-0.889-0.195-2.076 0.695-2.568l5.139-2.967C44.268 12.448 45.455 12.845 45.949 13.735L45.949 13.735z" data-fill-palette-color="accent"></path><path fill="#000000" d="M49.016 24.999c0 1.088-0.795 1.879-1.879 1.879h-5.932c-1.086 0-1.875-0.791-1.875-1.879l0 0c0-0.986 0.789-1.877 1.875-1.877h5.932C48.221 23.122 49.016 24.013 49.016 24.999L49.016 24.999z" data-fill-palette-color="accent"></path></g></svg></g></svg></g><g><rect width="157.81841615444927" height="3.928054273196149" y="55.26831834712471" x="237.7015838455507" fill="#000000" data-fill-palette-color="accent"></rect><rect width="157.81841615444927" height="3.928054273196149" y="55.26831834712471" x="0" fill="#000000" data-fill-palette-color="accent"></rect><rect width="157.81841615444927" height="3.928054273196149" y="47.41220980073241" x="237.7015838455507" fill="#000000" data-fill-palette-color="accent"></rect><rect width="157.81841615444927" height="3.928054273196149" y="47.41220980073241" x="0" fill="#000000" data-fill-palette-color="accent"></rect></g></svg></g><defs></defs></svg><rect width="395.52" height="114.03667036491977" fill="none" stroke="none" visibility="hidden"></rect></g></svg></g></svg>